<svg width="55" height="38" viewBox="0 0 55 38" fill="none" xmlns="http://www.w3.org/2000/svg">
<path d="M16.8575 0C13.8868 0 11.2022 1.77067 10.0326 4.50134L1.60105 24.1864C-1.05071 30.3775 3.49074 37.2632 10.2258 37.2632V37.2632C14.6106 37.2632 18.4107 34.2262 19.3775 29.9494L24.0993 9.06167C25.1491 4.41786 21.6185 0 16.8575 0V0ZM46.7097 0C43.7391 0 41.0544 1.77067 39.8848 4.50134L31.4533 24.1864C28.8015 30.3775 33.343 37.2632 40.078 37.2632V37.2632C44.4628 37.2632 48.2629 34.2262 49.2297 29.9494L53.9515 9.06167C55.0013 4.41786 51.4707 0 46.7097 0V0Z" fill="#FFC700"/>
</svg>
